# xmcd CD database file
#
# Track frame offsets:
#	150
#	13256
#	24899
#	39968
#	55930
#	66647
#	79997
#	94102
#	105444
#	117198
#
# Disc length: 1834 seconds
#
# Revision: 0
# Processed by: cddbd v1.5.2PL0 Copyright (c) Steve Scherf et al.
# Submitted via: CDex 1.70beta2
#
DISCID=7a07280a
DTITLE=Kenny Rogers and The First Edition - Country Legend
DYEAR=2006
DGENRE=Country
TTITLE0=Ruby, Don't Take Your Love To Town
TTITLE1=What Am I Going To Do With The Rest Of My Life
TTITLE2=Just Dropped In (To See What Condition My Condition Was In)
TTITLE3=I Found A Reason
TTITLE4=She Even Woke Me Up To Say Goodbye
TTITLE5=Sleep Comes Easy
TTITLE6=Sunshine
TTITLE7=If Wishes Were Horses
TTITLE8=I Just Want to Give My Love To You
TTITLE9=Lay It Down
EXTD=YEAR: 2006
EXTT0=
EXTT1=
EXTT2=
EXTT3=
EXTT4=
EXTT5=
EXTT6=
EXTT7=
EXTT8=
EXTT9=
PLAYORDER=
